# xmcd
#
# Track frame offsets: 
#        150
#        16301
#        35247
#        63631
#        87088
#        105832
#        129829
#        163034
#        182938
#        204767
#        230258
#
# Disc length: 3387 seconds
#
# Revision: 0
# Processed by: cddbd v1.5.1PL0 Copyright (c) Steve Scherf et al.
# Submitted via: ExactAudioCopy v0.95a5
#
DISCID=840d390b
DTITLE=The Lee Boys - Say Yes!
DYEAR=2005
DGENRE=Sacred Steel;Gospel
TTITLE0=Say Yes!
TTITLE1=Joyful Sounds
TTITLE2=Walk With Me
TTITLE3=Come On Help Me Lift Him Up
TTITLE4=Call Him By His Name
TTITLE5=If You're Happy And You Know It
TTITLE6=You've Got To Move
TTITLE7=Tribute To Calvin Cooke
TTITLE8=Let's Celebrate
TTITLE9=Amazing Grace
TTITLE10=Lee Boys Praise Jam
EXTD=
EXTT0=
EXTT1=
EXTT2=
EXTT3=
EXTT4=
EXTT5=
EXTT6=
EXTT7=
EXTT8=
EXTT9=
EXTT10=
PLAYORDER=
